<?xml version="1.0" standalone="no"?>
<!DOCTYPE svg PUBLIC "-//W3C//DTD SVG 20010904//EN"
 "http://www.w3.org/TR/2001/REC-SVG-20010904/DTD/svg10.dtd">
<svg version="1.0" xmlns="http://www.w3.org/2000/svg"
 width="422.000000pt" height="422.000000pt" viewBox="0 0 422.000000 422.000000"
 preserveAspectRatio="xMidYMid meet">
<metadata>
Created by potrace 1.11, written by Peter Selinger 2001-2013
</metadata>
<g transform="translate(0.000000,422.000000) scale(0.100000,-0.100000)"
fill="#000000" stroke="none">
<path d="M1915 4214 c-16 -2 -66 -9 -110 -15 -253 -33 -568 -146 -795 -286
-257 -159 -492 -386 -662 -640 -79 -117 -198 -362 -242 -498 -80 -245 -101
-386 -101 -665 0 -279 21 -420 101 -665 44 -136 163 -381 242 -498 338 -505
861 -836 1462 -929 112 -17 488 -17 600 0 601 93 1124 424 1462 929 33 48 93
156 133 238 101 207 163 402 197 625 17 112 17 488 0 600 -108 704 -543 1295
-1177 1600 -196 95 -366 150 -575 185 -91 16 -464 29 -535 19z m198 -724 c289
-88 496 -304 574 -598 22 -84 26 -117 26 -252 0 -135 -4 -168 -26 -253 -89
-336 -333 -564 -663 -622 -238 -41 -443 8 -575 139 -31 31 -60 56 -64 56 -4 0
-5 -147 -3 -327 5 -340 7 -364 50 -426 36 -50 114 -77 271 -92 l68 -7 -3 -66
-3 -67 -555 0 -555 0 -3 67 -3 66 43 7 c103 15 140 28 172 59 62 63 60 30 64
946 3 872 -2 1036 -36 1094 -25 44 -81 68 -169 74 l-74 5 3 65 3 66 305 43
c168 23 313 42 323 43 15 0 17 -12 17 -116 l0 -117 54 51 c120 114 260 176
425 190 114 9 248 -2 334 -28z m1375 -1057 c29 -14 64 -40 80 -61 24 -31 27
-44 27 -111 0 -65 -5 -85 -32 -141 -17 -36 -41 -79 -52 -96 l-21 -31 81 23
c45 13 100 24 123 24 77 0 206 -50 220 -85 8 -22 -29 -120 -66 -171 -34 -47
-124 -114 -183 -135 -32 -12 -47 -29 -26 -29 19 0 119 -101 137 -137 44 -94
36 -174 -25 -234 -37 -38 -116 -69 -172 -69 -39 0 -118 28 -154 54 -59 44 -58
44 -51 -20 21 -183 -75 -294 -219 -254 -78 22 -138 88 -169 184 -6 17 -15 11
-66 -42 -269 -276 -689 -475 -975 -460 -58 3 -86 10 -148 41 -83 41 -92 62
-24 52 54 -8 231 11 327 35 208 53 456 186 638 341 67 56 202 212 202 231 0 5
-27 -13 -59 -40 -195 -162 -371 -135 -371 58 1 74 26 125 90 183 60 54 145 97
245 125 69 19 69 19 35 26 -196 39 -280 77 -317 142 -61 106 17 229 154 241
99 9 238 -38 316 -107 19 -16 37 -30 39 -30 3 0 8 34 12 75 14 152 68 310 129
373 79 83 163 97 275 45z m-1134 -955 c63 -84 74 -235 23 -333 -30 -59 -75
-115 -92 -115 -24 0 -84 79 -99 131 -34 114 -10 214 69 297 28 28 56 52 63 52
6 0 22 -15 36 -32z m662 -740 c28 -10 59 -27 69 -38 16 -18 17 -23 5 -46 -19
-35 -75 -90 -120 -119 -131 -83 -319 -66 -387 34 -36 53 -26 101 20 101 10 0
32 9 48 20 72 52 190 83 274 72 22 -3 63 -13 91 -24z"/>
<path d="M1733 3325 c-159 -43 -253 -137 -310 -308 -26 -78 -27 -93 -31 -330
-4 -288 4 -347 70 -478 102 -205 299 -291 510 -223 110 35 189 148 230 326 30
127 32 494 5 632 -32 160 -92 276 -173 335 -77 57 -194 74 -301 46z"/>
<path d="M3307 2313 c-36 -39 -73 -124 -91 -213 -16 -81 -40 -290 -33 -296 6
-7 165 186 224 272 58 86 90 167 79 208 -8 33 -53 56 -109 56 -34 0 -49 -6
-70 -27z"/>
<path d="M2673 1955 c-15 -10 -23 -27 -23 -45 0 -36 33 -61 115 -88 80 -27
265 -74 276 -70 15 5 -40 105 -73 133 -59 50 -128 78 -203 82 -54 4 -75 1 -92
-12z"/>
<path d="M3620 1916 c-83 -23 -228 -107 -320 -186 l-35 -29 102 -1 c229 0 375
58 434 173 l20 37 -26 10 c-35 13 -119 11 -175 -4z"/>
<path d="M2930 1614 c-104 -31 -187 -75 -250 -131 -54 -49 -75 -97 -66 -149 6
-28 11 -34 32 -34 62 0 209 106 347 247 42 45 77 83 77 87 0 12 -57 4 -140
-20z"/>
<path d="M3131 1539 c-22 -49 -51 -197 -51 -260 0 -109 40 -188 107 -210 34
-11 38 -10 56 12 17 21 19 34 14 114 -6 90 -60 304 -91 363 l-15 27 -20 -46z"/>
<path d="M3344 1523 c41 -74 107 -154 156 -188 77 -54 180 -32 180 38 0 96
-120 174 -294 192 l-69 8 27 -50z"/>
<path d="M2280 1368 c-28 -62 -26 -140 6 -208 l27 -55 20 45 c14 32 20 66 20
115 0 71 -22 145 -43 145 -6 0 -20 -19 -30 -42z"/>
<path d="M2757 680 c-21 -6 -51 -17 -68 -26 -30 -15 -30 -16 -12 -36 31 -35
69 -48 138 -48 70 0 141 27 179 69 18 20 18 21 -10 32 -38 15 -179 21 -227 9z"/>
</g>
</svg>
